<svg width="42" height="81" viewBox="0 0 182 221" xmlns="http://www.w3.org/2000/svg">
 <!-- Created with UXWing SVG Editor - https://uxwing.com/svg-icon-editor/ -->

 <g>
  <title>background</title>
  <rect fill="none" id="canvas_background" height="83" width="44" y="-1" x="-1"/>
  <g display="none" id="canvasGrid">
   <rect fill="url(#gridpattern)" stroke-width="0" y="0" x="0" height="100%" width="100%" id="svg_2"/>
  </g>
 </g>
 <g>
  <title>Layer 1</title>
  <path id="svg_1" d="m90.18598,2.60331c-48.13924,0 -87.16665,27.85117 -87.16665,62.20484c0,34.36195 87.16665,150.29517 87.16665,150.29517s87.16662,-115.93322 87.16662,-150.29517c0,-34.35367 -39.01578,-62.20484 -87.16662,-62.20484zm0,91.93046c-23.00037,0 -41.65404,-13.30356 -41.65404,-29.72562s18.65367,-29.72561 41.65404,-29.72561s41.65404,13.31181 41.65404,29.72561s-18.65367,29.72562 -41.65404,29.72562z" stroke-width="1.5" fill="#000000" stroke="#000000"/>
  <style type="text/css">
   <![CDATA[
	.st0{fill-rule:evenodd;clip-rule:evenodd;fill:#A60D0D;}
	.st1{fill-rule:evenodd;clip-rule:evenodd;fill:#EA4335;}
]]>
  </style>
  <ellipse ry="41.833221" rx="54.833205" id="svg_20" cy="73.666796" cx="89.667004" stroke-width="1.5" fill="#ffffff" stroke="#ffffff"/>
  <path stroke="#000000" id="svg_10" d="m65.648796,97.586357c-4.767596,0.433797 -4.859532,-2.987841 -0.578291,-3.097034c-1.283322,-1.46801 -0.301062,-3.26908 1.595656,-4.627716c2.720058,-2.269873 6.810892,-4.526066 5.965688,-7.367717c-0.2926,-1.478355 -4.00276,-4.128927 1.74903,-3.749347c1.555122,-1.474249 0.650709,-3.644715 1.817044,-5.338059c1.01852,-3.210001 3.285519,-6.635236 0.874101,-9.817709c-1.520353,-1.69406 -5.383613,-2.809132 -4.968958,-4.880089c-0.436664,-2.019513 -0.292176,-4.054426 0.184674,-6.068025c1.856474,0.07688 3.92239,-0.192978 5.615064,0.222458c-0.012686,1.95477 3.748124,1.521719 3.297121,-0.139486c0.989368,-0.193426 2.627118,-0.02777 3.866125,-0.082971c5.508457,0 11.016944,0 16.5254,0c-0.630224,1.133303 1.075112,2.594002 3.23456,1.259746c-0.59072,-1.772522 4.35577,-1.185938 3.170362,0.33888c0.069816,2.020238 0.571359,4.110416 -0.577958,6.077619c-1.871898,0.785554 -1.901412,2.331649 -4.24649,3.258034c-1.884486,1.736912 -1.054019,3.83578 -0.844449,5.722482c0.798136,2.792201 2.115937,5.54963 2.444458,8.373946c-0.234979,1.535524 6.167337,1.083593 3.406767,2.973608c-3.017039,1.268613 -1.251033,3.411017 -0.056247,4.925995c2.357993,2.618518 7.328351,4.970618 6.578143,8.041688c-0.594887,1.341692 4.327383,0.888052 3.047879,2.615756c-0.037118,2.129365 -6.446002,0.760486 -9.284925,1.207745c-14.27004,0.085448 -28.544521,0.217396 -42.814762,0.150193l0.000009,0.000003z" stroke-width="1.5" fill="#000000"/>
 </g>
</svg>
