<svg width="42" height="81" viewBox="0 0 182 221" xmlns="http://www.w3.org/2000/svg">
 <!-- Created with UXWing SVG Editor - https://uxwing.com/svg-icon-editor/ -->

 <g>
  <title>background</title>
  <rect fill="none" id="canvas_background" height="83" width="44" y="-1" x="-1"/>
  <g display="none" id="canvasGrid">
   <rect fill="url(#gridpattern)" stroke-width="0" y="0" x="0" height="100%" width="100%" id="svg_2"/>
  </g>
 </g>
 <g>
  <title>Layer 1</title>
  <path id="svg_1" d="m91.18598,3.60331c-48.13924,0 -87.16665,27.85117 -87.16665,62.20484c0,34.36195 87.16665,150.29517 87.16665,150.29517s87.16662,-115.93322 87.16662,-150.29517c0,-34.35367 -39.01578,-62.20484 -87.16662,-62.20484zm0,91.93046c-23.00037,0 -41.65404,-13.30356 -41.65404,-29.72562s18.65367,-29.72561 41.65404,-29.72561s41.65404,13.31181 41.65404,29.72561s-18.65367,29.72562 -41.65404,29.72562z" stroke-width="1.5" fill="#000000" stroke="#000000"/>
  <style type="text/css">
   <![CDATA[
	.st0{fill-rule:evenodd;clip-rule:evenodd;fill:#A60D0D;}
	.st1{fill-rule:evenodd;clip-rule:evenodd;fill:#EA4335;}
]]>
  </style>
  <ellipse ry="41.833221" rx="54.833205" id="svg_20" cy="72.666796" cx="90.667004" stroke-width="1.5" fill="#ffffff" stroke="#ffffff"/>
  <style transform="matrix(0.35940132256206425,0,0,0.35940132256206425,0,0) " type="text/css">.st0{fill-rule:evenodd;clip-rule:evenodd;}</style>
  <path stroke="#ffffff" id="svg_10" d="m70.10207,95.185285c-4.086511,0.481996 -4.165313,-3.319824 -0.495678,-3.441149c-1.09999,-1.631122 -0.258053,-3.632312 1.367705,-5.141907c2.331478,-2.522082 5.837907,-5.028963 5.113447,-8.186353c-0.2508,-1.642616 -3.430937,-4.587697 1.499169,-4.165941c1.332962,-1.638055 0.557751,-4.049684 1.557466,-5.931177c0.873017,-3.566669 2.816159,-7.372485 0.74923,-10.908566c-1.30316,-1.882289 -4.614525,-3.121257 -4.259107,-5.422321c-0.374284,-2.243903 -0.250436,-4.504918 0.158292,-6.742251c1.591264,0.085422 3.362049,-0.214421 4.812912,0.247175c-0.010874,2.171966 3.212678,1.690799 2.826103,-0.154985c0.84803,-0.214918 2.251815,-0.030856 3.313821,-0.09219c4.721534,0 9.443095,0 14.164629,0c-0.540192,1.259225 0.921524,2.882225 2.77248,1.399718c-0.506332,-1.969469 3.733517,-1.317709 2.717453,0.376534c0.059842,2.244709 0.489737,4.567129 -0.495392,6.75291c-1.604484,0.872838 -1.629782,2.590721 -3.639849,3.620038c-1.615274,1.929902 -0.903445,4.261978 -0.723813,6.358314c0.684117,3.102445 1.81366,6.166256 2.095249,9.304385c-0.20141,1.706138 5.286289,1.203992 2.920086,3.304009c-2.586033,1.40957 -1.072314,3.790019 -0.048211,5.473328c2.021137,2.909465 6.281443,5.522909 5.638408,8.935209c-0.509903,1.490769 3.709185,0.986724 2.612468,2.906396c-0.031815,2.365961 -5.525144,0.844985 -7.958507,1.341939c-12.231463,0.094942 -24.466733,0.241551 -36.698368,0.166881l0.000008,0.000003z" stroke-opacity="null" stroke-width="1.5" fill="#00000"/>
 </g>
</svg>
