<svg width="42" height="81" viewBox="0 0 182 221" xmlns="http://www.w3.org/2000/svg">
 <!-- Created with UXWing SVG Editor - https://uxwing.com/svg-icon-editor/ -->

 <g>
  <title>background</title>
  <rect fill="none" id="canvas_background" height="83" width="44" y="-1" x="-1"/>
  <g display="none" id="canvasGrid">
   <rect fill="url(#gridpattern)" stroke-width="0" y="0" x="0" height="100%" width="100%" id="svg_2"/>
  </g>
 </g>
 <g>
  <title>Layer 1</title>
  <path id="svg_1" d="m91.18598,3.60331c-48.13924,0 -87.16665,27.85117 -87.16665,62.20484c0,34.36195 87.16665,150.29517 87.16665,150.29517s87.16662,-115.93322 87.16662,-150.29517c0,-34.35367 -39.01578,-62.20484 -87.16662,-62.20484zm0,91.93046c-23.00037,0 -41.65404,-13.30356 -41.65404,-29.72562s18.65367,-29.72561 41.65404,-29.72561s41.65404,13.31181 41.65404,29.72561s-18.65367,29.72562 -41.65404,29.72562z" stroke-width="1.5" fill="#530ecc" stroke="#530ecc"/>
  <style type="text/css">
   <![CDATA[
	.st0{fill-rule:evenodd;clip-rule:evenodd;fill:#A60D0D;}
	.st1{fill-rule:evenodd;clip-rule:evenodd;fill:#EA4335;}
]]>
  </style>
  <ellipse ry="41.833221" rx="54.833205" id="svg_20" cy="70.666796" cx="89.667004" stroke-width="1.5" fill="#ffffff" stroke="#ffffff"/>
  <g stroke="null" id="svg_9">
   <g stroke="null" transform="matrix(0.421089976152685,0,0,0.4528408217867635,-9.159987233384527,-17.210925469863454) " id="svg_7">
    <path stroke="null" id="svg_8" d="m251.879281,194.06229c11.61,1.57 21.65,4.57 28.79,8.49c8.11,4.45 12.88,10.3 12.88,17c0,8.29 -7.44,15.35 -19.46,20.05c-10.58,4.14 -25.07,6.69 -40.98,6.69c-15.9,0 -30.4,-2.56 -40.98,-6.69c-12.02,-4.69 -19.46,-11.75 -19.46,-20.04c0,-6.8 4.91,-12.71 13.23,-17.19c7.32,-3.94 17.6,-6.93 29.47,-8.44l1.28,10.11c-10.6,1.34 -19.64,3.94 -25.92,7.32c-4.93,2.65 -7.83,5.51 -7.83,8.2c0,3.65 4.95,7.41 12.95,10.53c9.44,3.69 22.61,5.97 37.26,5.97c14.65,0 27.82,-2.28 37.26,-5.97c8,-3.13 12.95,-6.89 12.95,-10.53c0,-2.63 -2.8,-5.44 -7.57,-8.05c-6.09,-3.34 -14.88,-5.94 -25.23,-7.34l1.36,-10.11l0,0zm-13.88,-26.28l0,50.87l-10.23,0l0,-50.87c-9.95,-2.32 -17.36,-11.24 -17.36,-21.89c0,-12.41 10.06,-22.47 22.48,-22.47c12.41,0 22.47,10.06 22.47,22.47c0,10.66 -7.41,19.58 -17.36,21.89l0,0z"/>
   </g>
  </g>
 </g>
</svg>
