<svg width="42" height="81" viewBox="0 0 182 221" xmlns="http://www.w3.org/2000/svg">
 <!-- Created with UXWing SVG Editor - https://uxwing.com/svg-icon-editor/ -->

 <g>
  <title>background</title>
  <rect fill="none" id="canvas_background" height="83" width="44" y="-1" x="-1"/>
  <g display="none" id="canvasGrid">
   <rect fill="url(#gridpattern)" stroke-width="0" y="0" x="0" height="100%" width="100%" id="svg_2"/>
  </g>
 </g>
 <g>
  <title>Layer 1</title>
  <path id="svg_1" d="m90.18598,2.60331c-48.13924,0 -87.16665,27.85117 -87.16665,62.20484c0,34.36195 87.16665,150.29517 87.16665,150.29517s87.16662,-115.93322 87.16662,-150.29517c0,-34.35367 -39.01578,-62.20484 -87.16662,-62.20484zm0,91.93046c-23.00037,0 -41.65404,-13.30356 -41.65404,-29.72562s18.65367,-29.72561 41.65404,-29.72561s41.65404,13.31181 41.65404,29.72561s-18.65367,29.72562 -41.65404,29.72562z" stroke-width="1.5" fill="#999999" stroke="#999999"/>
  <style type="text/css">
   <![CDATA[
	.st0{fill-rule:evenodd;clip-rule:evenodd;fill:#A60D0D;}
	.st1{fill-rule:evenodd;clip-rule:evenodd;fill:#EA4335;}
]]>
  </style>
  <ellipse ry="41.833221" rx="54.833205" id="svg_20" cy="73.666796" cx="89.667004" stroke-width="1.5" fill="#ffffff" stroke="#ffffff"/>
  <g stroke="null" id="svg_9">
   <g stroke="null" transform="matrix(0.5384377736781107,0,0,0.6810795522243106,-31.841068406821705,-41.75482757037571) " id="svg_7">
    <path stroke="null" id="svg_8" d="m207.429012,199.834813l-39.09,0l-5.35,0l2.92,-4.5l41.44,-63.98c0.23,-0.41 0.57,-0.77 0.99,-1.03c1.37,-0.85 3.16,-0.43 4.01,0.93l16.04,25.64l0,0l3.37,5.38l-1.75,2.7l-4.09,-6.54c-2.45,-0.73 -5.86,8.9 -8.45,8.53c-3.57,-0.51 -7.61,-12.43 -10.16,-9.32l-8.71,10.62l-9.13,-3.95l-21.13,32.6l40.97,0l-1.88,2.92l0,0zm74.62,-0.22l-59.29,0l-3.89,0l2.12,-3.27l15.57,-24.04l0.73,-1.13l0,0l13.78,-21.28c0.17,-0.3 0.41,-0.56 0.72,-0.75c0.99,-0.62 2.3,-0.31 2.91,0.68l11.65,18.61l0,0l17.42,27.83c0.05,0.07 0.1,0.14 0.14,0.22l1.96,3.13l-3.82,0l0,0zm-59.29,-2.12l59.29,0l-17.49,-27.95c-1.78,-0.53 -4.25,6.46 -6.14,6.19c-2.59,-0.37 -5.53,-9.02 -7.38,-6.77l-6.32,7.71l-6.63,-2.87l-15.33,23.69l0,0zm15.62,-69.16c4.6,0 8.34,3.73 8.34,8.34s-3.73,8.34 -8.34,8.34c-4.6,0 -8.34,-3.73 -8.34,-8.34s3.73,-8.34 8.34,-8.34l0,0z"/>
   </g>
  </g>
 </g>
</svg>
