<svg width="42" height="81" viewBox="0 0 182 221" xmlns="http://www.w3.org/2000/svg">
 <!-- Created with UXWing SVG Editor - https://uxwing.com/svg-icon-editor/ -->

 <g>
  <title>background</title>
  <rect fill="none" id="canvas_background" height="83" width="44" y="-1" x="-1"/>
  <g display="none" id="canvasGrid">
   <rect fill="url(#gridpattern)" stroke-width="0" y="0" x="0" height="100%" width="100%" id="svg_2"/>
  </g>
 </g>
 <g>
  <title>Layer 1</title>
  <path id="svg_1" d="m91.185979,3.603312c-48.139244,0 -87.166653,27.851172 -87.166653,62.204843c0,34.361946 87.166653,150.295164 87.166653,150.295164s87.166624,-115.933218 87.166624,-150.295164c0,-34.353671 -39.015784,-62.204843 -87.166624,-62.204843zm0,91.930462c-23.000371,0 -41.654038,-13.303566 -41.654038,-29.725619s18.653667,-29.725619 41.654038,-29.725619s41.654038,13.311813 41.654038,29.725619s-18.653667,29.725619 -41.654038,29.725619z" stroke-width="1.5" fill="#005fbf" stroke="#005fbf"/>
  <style type="text/css">
   <![CDATA[
	.st0{fill-rule:evenodd;clip-rule:evenodd;fill:#A60D0D;}
	.st1{fill-rule:evenodd;clip-rule:evenodd;fill:#EA4335;}
]]>
  </style>
  <ellipse ry="41.833221" rx="54.833205" id="svg_20" cy="63.666796" cx="91.667004" stroke-width="1.5" fill="#ffffff" stroke="#ffffff"/>
  <g id="svg_9">
   <g transform="matrix(0.4072202543339678,0,0,0.4072202543339678,0,0) " id="svg_7">
    <path id="svg_8" d="m181.526292,187.557283c2.67,12.4 10.69,18.59 10.69,24.79c0,6.2 -2.67,12.4 -10.69,12.4c-8.02,0 -10.69,-6.2 -10.69,-12.4c0,-6.2 8.02,-12.4 10.69,-24.79l0,0zm82.63,-45.97l-22.01,0l5.49,20.46l16.48,0l0.05,0l0,-20.46l-0.01,0zm-22.84,-3.08l22.84,0l0,-4.55c0,-0.75 0.31,-1.44 0.8,-1.93c0.04,-0.04 0.08,-0.08 0.13,-0.11c0.48,-0.43 1.12,-0.69 1.81,-0.69l11.56,0c0.75,0 1.43,0.31 1.93,0.8l0,0l0,0c0.49,0.49 0.8,1.18 0.8,1.93l0,36.47c0,0.75 -0.31,1.44 -0.8,1.93c-0.04,0.04 -0.08,0.08 -0.13,0.11c-0.48,0.43 -1.12,0.69 -1.81,0.69l-11.56,0c-0.75,0 -1.43,-0.31 -1.93,-0.8l0,0l0,0c-0.49,-0.49 -0.8,-1.18 -0.8,-1.93l0,-5.31l-0.05,0l-16.2,0c-1.42,6.38 -5.49,10.85 -10.69,13.46c-3.72,1.87 -8.02,2.79 -12.33,2.78c-4.3,0 -8.62,-0.93 -12.4,-2.74c-5.52,-2.65 -9.89,-7.18 -11.4,-13.51l-0.85,0l0,0c-2.54,0.1 -4.42,0.7 -5.71,1.76c-1.21,1 -1.92,2.48 -2.17,4.41l0,7.76c0,0.85 -0.69,1.54 -1.54,1.54l-23.53,0c-0.85,0.01 -1.54,-0.68 -1.54,-1.53l0,-16.81l0,0c0,-0.09 0.01,-0.17 0.02,-0.26c1.13,-6.6 3.62,-11.99 7.64,-15.98c4,-3.97 9.48,-6.51 16.62,-7.46c0.11,-0.02 0.22,-0.04 0.34,-0.04l17.93,0l3.11,-10.59c0.2,-0.67 0.81,-1.1 1.47,-1.1l0,0l5.14,0l0,-11.61l-12.56,0c-1.84,0 -3.5,-0.75 -4.71,-1.96c-1.21,-1.21 -1.96,-2.88 -1.96,-4.71c0,-1.84 0.75,-3.5 1.96,-4.71c1.21,-1.21 2.88,-1.96 4.71,-1.96l37.27,0c1.84,0 3.5,0.75 4.71,1.96c1.21,1.21 1.96,2.88 1.96,4.71c0,1.84 -0.75,3.5 -1.96,4.71c-1.21,1.21 -2.88,1.96 -4.71,1.96l-11.86,0l0,11.61l6.14,0c0.74,0 1.36,0.52 1.51,1.22l2.8,10.48l0,0zm-13.53,-11.7l0,-11.61l-6.69,0l0,11.61l6.69,0l0,0zm-26.38,35.24l6,-20.46l-16.98,0c-6.43,0.86 -11.33,3.1 -14.85,6.59c-3.52,3.49 -5.72,8.27 -6.75,14.18l0,15.15l20.46,0l0,-6.31c0,-0.09 0.01,-0.17 0.02,-0.26c0.34,-2.74 1.41,-4.9 3.27,-6.43c1.81,-1.5 4.33,-2.34 7.61,-2.46l0.05,0l0,-0.01l1.17,0l0,0.01zm2.6,2.05c1.2,5.51 4.98,9.46 9.8,11.77c3.37,1.61 7.23,2.43 11.08,2.44c3.84,0 7.66,-0.81 10.95,-2.46c4.53,-2.28 8.04,-6.17 9.16,-11.75l-9.17,-34.2l-21.79,0l-3.11,10.59l-6.87,23.43c-0.01,0.05 -0.03,0.12 -0.05,0.18l0,0zm38.73,-59.16l-37.28,0c-0.99,0 -1.88,0.4 -2.54,1.06c-0.65,0.65 -1.06,1.55 -1.06,2.54c0,0.99 0.41,1.88 1.06,2.54c0.65,0.65 1.55,1.06 2.54,1.06l37.27,0c0.99,0 1.88,-0.41 2.54,-1.06c0.65,-0.65 1.06,-1.55 1.06,-2.54c0,-0.99 -0.41,-1.88 -1.06,-2.54c-0.65,-0.66 -1.55,-1.06 -2.53,-1.06l0,0zm35.37,29.36l-10.87,0l0,35.79l10.87,0l0,-35.79l0,0z"/>
   </g>
  </g>
 </g>
</svg>
