<svg width="42" height="81" viewBox="0 0 182 221" xmlns="http://www.w3.org/2000/svg">
 <style type="text/css">
  <![CDATA[
	.st0{fill-rule:evenodd;clip-rule:evenodd;fill:#A60D0D;}
	.st1{fill-rule:evenodd;clip-rule:evenodd;fill:#EA4335;}
]]>
 </style>

 <g>
  <title>background</title>
  <rect x="-1" y="-1" height="83" width="44" id="canvas_background" fill="none"/>
 </g>
 <g>
  <title>Layer 1</title>
  <path stroke="null" class="st1" d="m60.07381,170.15269c8.43538,11.96691 17.55782,26.46656 26.56576,40.55824c3.33981,5.20153 6.35517,5.98345 10.36294,-0.18698c8.70257,-13.44575 17.25247,-27.36745 26.2604,-40.35425c27.34822,-39.41934 72.10161,-77.85277 36.50884,-130.90485c-31.60411,-47.10263 -117.56112,-42.07109 -143.26807,1.78483c-29.46662,50.26434 16.54633,90.78858 43.57012,129.10301l0,0l0.00001,0z" id="svg_2"/>
  <ellipse stroke="null" fill="#ffffff" stroke-width="null" stroke-opacity="null" cx="91.000298" cy="81.999979" id="svg_4" rx="50.999999" ry="47.999998"/>
  <g stroke="null" id="svg_16">
   <g stroke="null" transform="matrix(0.47475810267764956,0,0,0.4962077462917564,157.5791245123532,113.50444350510773) " id="svg_14">
    <path stroke="null" id="svg_15" d="m-80.92988,-45.70556c1.06,-0.93 2.68,-0.82 3.61,0.24c0.93,1.06 0.82,2.68 -0.24,3.61c-15.57,13.62 -23.47,8.45 -31.53,3.18c-27.37,-17.9 -29.35,27.26 -60.88,6.64c-6.42,-4.2 -12.72,-8.32 -25.36,2.74c-1.06,0.93 -2.68,0.82 -3.61,-0.24c-0.93,-1.06 -0.82,-2.68 0.24,-3.61c15.57,-13.62 23.47,-8.45 31.53,-3.18c27.37,17.9 29.35,-27.26 60.87,-6.64c6.43,4.2 12.73,8.32 25.37,-2.74l0,0zm-114.4,-51.69c-1.06,0.93 -2.68,0.82 -3.61,-0.24c-0.93,-1.06 -0.82,-2.68 0.24,-3.61c15.57,-13.62 23.47,-8.45 31.53,-3.18c27.37,17.9 29.35,-27.26 60.87,-6.64c6.42,4.2 12.72,8.32 25.36,-2.74c1.06,-0.93 2.68,-0.82 3.61,0.24c0.93,1.06 0.82,2.68 -0.24,3.61c-15.57,13.62 -23.47,8.45 -31.53,3.18c-27.36,-17.9 -29.34,27.27 -60.87,6.64c-6.42,-4.2 -12.72,-8.32 -25.36,2.74l0,0zm0,22.7c-1.06,0.93 -2.68,0.82 -3.61,-0.24c-0.93,-1.06 -0.82,-2.68 0.24,-3.61c15.57,-13.62 23.47,-8.45 31.53,-3.18c27.37,17.9 29.35,-27.26 60.87,-6.64c6.42,4.2 12.72,8.32 25.36,-2.74c1.06,-0.93 2.68,-0.82 3.61,0.24c0.93,1.06 0.82,2.68 -0.24,3.61c-15.57,13.62 -23.47,8.45 -31.53,3.18c-27.36,-17.9 -29.34,27.27 -60.87,6.64c-6.42,-4.2 -12.72,-8.32 -25.36,2.74l0,0zm0,22.7c-1.06,0.93 -2.68,0.82 -3.61,-0.24c-0.93,-1.06 -0.82,-2.68 0.24,-3.61c15.57,-13.62 23.47,-8.45 31.53,-3.18c27.37,17.9 29.35,-27.26 60.87,-6.64c6.42,4.2 12.72,8.32 25.36,-2.74c1.06,-0.93 2.68,-0.82 3.61,0.24c0.93,1.06 0.82,2.68 -0.24,3.61c-15.57,13.62 -23.47,8.45 -31.53,3.18c-27.36,-17.9 -29.34,27.27 -60.87,6.64c-6.42,-4.2 -12.72,-8.32 -25.36,2.74l0,0z"/>
   </g>
  </g>
 </g>
</svg>
