<svg width="42" height="81" viewBox="0 0 182 221" xmlns="http://www.w3.org/2000/svg">
 <!-- Created with UXWing SVG Editor - https://uxwing.com/svg-icon-editor/ -->

 <g>
  <title>background</title>
  <rect fill="none" id="canvas_background" height="83" width="44" y="-1" x="-1"/>
  <g display="none" id="canvasGrid">
   <rect fill="url(#gridpattern)" stroke-width="0" y="0" x="0" height="100%" width="100%" id="svg_2"/>
  </g>
 </g>
 <g>
  <title>Layer 1</title>
  <path id="svg_1" d="m91.18598,5.60331c-48.13924,0 -87.16665,27.85117 -87.16665,62.20484c0,34.36195 87.16665,150.29517 87.16665,150.29517s87.16662,-115.93322 87.16662,-150.29517c0,-34.35367 -39.01578,-62.20484 -87.16662,-62.20484zm0,91.93046c-23.00037,0 -41.65404,-13.30356 -41.65404,-29.72562s18.65367,-29.72561 41.65404,-29.72561s41.65404,13.31181 41.65404,29.72561s-18.65367,29.72562 -41.65404,29.72562z" stroke-width="1.5" fill="#00bf5f" stroke="#00bf5f"/>
  <style type="text/css">
   <![CDATA[
	.st0{fill-rule:evenodd;clip-rule:evenodd;fill:#A60D0D;}
	.st1{fill-rule:evenodd;clip-rule:evenodd;fill:#EA4335;}
]]>
  </style>
  <ellipse ry="41.833221" rx="54.833205" id="svg_20" cy="74.666796" cx="90.667004" stroke-width="1.5" fill="#ffffff" stroke="#ffffff"/>
  <g stroke="null" id="svg_9">
   <g stroke="null" transform="matrix(0.4841330833962661,0,0,0.49333356616717267,22.528116452781887,9.410141538197422) " id="svg_7">
    <path stroke="null" id="svg_8" d="m146.342501,72.780785c5.08,21.69 12.03,30.25 19.61,39.58c4.9,6.04 10.06,12.39 15.19,22.47c1.31,2.58 2.39,5.25 3.14,8.06c0.76,2.84 1.19,5.79 1.19,8.87c0,5.68 -1.04,10.99 -3.11,15.92c-2.07,4.91 -5.16,9.4 -9.27,13.46c-4.12,4.05 -8.65,7.11 -13.6,9.16c-4.96,2.05 -10.3,3.08 -16.01,3.08c-5.71,0 -11.04,-1.03 -15.99,-3.08c-4.93,-2.04 -9.45,-5.1 -13.57,-9.16c-4.11,-4.06 -7.21,-8.55 -9.28,-13.46c-2.08,-4.93 -3.12,-10.24 -3.12,-15.92c0,-2.91 0.38,-5.7 1.06,-8.39c0.67,-2.64 1.64,-5.18 2.84,-7.66c5.02,-10.38 10.29,-16.84 15.36,-23.07c7.61,-9.34 14.79,-18.14 19.79,-39.85c0.36,-1.59 1.95,-2.58 3.54,-2.22c1.15,0.27 1.98,1.15 2.23,2.21l0,0zm-24.3,68.63c2.1,-0.19 3.95,1.36 4.13,3.45c0.48,5.06 1.59,9.72 3.7,13.74c2.04,3.88 5.08,7.23 9.48,9.8c1.81,1.06 2.42,3.4 1.36,5.21c-1.06,1.81 -3.4,2.42 -5.2,1.36c-5.73,-3.35 -9.69,-7.71 -12.38,-12.82c-2.7,-5.14 -3.99,-10.86 -4.54,-16.6c-0.19,-2.09 1.37,-3.95 3.45,-4.14l0,0zm39.33,-25.32c-6.68,-8.23 -12.9,-15.88 -17.9,-31.44c-5.02,15.66 -11.4,23.5 -18.1,31.72c-4.86,5.96 -9.9,12.14 -14.62,21.91c-1.02,2.1 -1.85,4.28 -2.42,6.55c-0.56,2.22 -0.88,4.52 -0.88,6.93c0,4.92 0.88,9.46 2.63,13.63c1.76,4.18 4.43,8.03 7.98,11.54c3.57,3.52 7.47,6.16 11.7,7.91c4.21,1.74 8.78,2.62 13.72,2.62c4.96,0 9.55,-0.88 13.77,-2.62c4.22,-1.75 8.13,-4.39 11.7,-7.91c3.55,-3.51 6.21,-7.36 7.97,-11.54c1.75,-4.16 2.63,-8.7 2.63,-13.63c0,-2.57 -0.35,-5 -0.98,-7.34c-0.64,-2.37 -1.56,-4.66 -2.7,-6.9c-4.88,-9.58 -9.81,-15.65 -14.5,-21.43l0,0z"/>
   </g>
  </g>
 </g>
</svg>
